ExploreSansVariable-NormalSans.ufo
<glyph name="ampersand" format="2">
  <advance width="713"/>
  <unicode hex="0026"/>
  <outline>
    <contour>
      <point x="315" y="716" type="curve" smooth="yes"/>
      <point x="386" y="716"/>
      <point x="431" y="690"/>
      <point x="474" y="662" type="curve"/>
      <point x="440" y="607" type="line"/>
      <point x="401" y="633"/>
      <point x="372" y="652"/>
      <point x="315" y="652" type="curve" smooth="yes"/>
      <point x="249" y="652"/>
      <point x="206" y="612"/>
      <point x="206" y="559" type="curve" smooth="yes"/>
      <point x="206" y="499"/>
      <point x="226" y="476"/>
      <point x="259" y="434" type="curve"/>
      <point x="638" y="0" type="line"/>
      <point x="539" y="0" type="line"/>
      <point x="202" y="392" type="line"/>
      <point x="144" y="463"/>
      <point x="126" y="494"/>
      <point x="126" y="559" type="curve" smooth="yes"/>
      <point x="126" y="640"/>
      <point x="194" y="716"/>
    </contour>
    <contour>
      <point x="258" y="426" type="line"/>
      <point x="258" y="366" type="line"/>
      <point x="238" y="366" type="line" smooth="yes"/>
      <point x="150" y="366"/>
      <point x="120" y="289"/>
      <point x="120" y="212" type="curve" smooth="yes"/>
      <point x="120" y="120"/>
      <point x="173" y="56"/>
      <point x="264" y="56" type="curve" smooth="yes"/>
      <point x="344" y="56"/>
      <point x="413" y="103"/>
      <point x="435" y="175" type="curve"/>
      <point x="504" y="415" type="line"/>
      <point x="675" y="402" type="line"/>
      <point x="675" y="333" type="line"/>
      <point x="557" y="341" type="line"/>
      <point x="543" y="295"/>
      <point x="520" y="207"/>
      <point x="504" y="153" type="curve" smooth="yes"/>
      <point x="477" y="61"/>
      <point x="388" y="-8"/>
      <point x="262" y="-8" type="curve" smooth="yes"/>
      <point x="130" y="-8"/>
      <point x="41" y="85"/>
      <point x="41" y="211" type="curve" smooth="yes"/>
      <point x="41" y="333"/>
      <point x="121" y="426"/>
      <point x="222" y="426" type="curve" smooth="yes"/>
    </contour>
  </outline>
</glyph>
<glyph name="quotesingle" format="2">
  <advance width="158"/>
  <unicode hex="0027"/>
  <outline>
    <contour>
      <point x="44" y="772" type="line"/>
      <point x="122" y="772" type="line"/>
      <point x="113" y="508" type="line"/>
      <point x="53" y="508" type="line"/>
    </contour>
  </outline>
</glyph>
<glyph name="six" format="2">
  <advance width="550"/>
  <unicode hex="0036"/>
  <outline>
    <contour>
      <point x="419" y="716" type="curve"/>
      <point x="429" y="653" type="line"/>
      <point x="309" y="636"/>
      <point x="125" y="555"/>
      <point x="125" y="339" type="curve"/>
      <point x="142" y="401"/>
      <point x="216" y="450"/>
      <point x="295" y="450" type="curve" smooth="yes"/>
      <point x="430" y="450"/>
      <point x="510" y="366"/>
      <point x="510" y="223" type="curve" smooth="yes"/>
      <point x="510" y="88"/>
      <point x="413" y="-8"/>
      <point x="276" y="-8" type="curve" smooth="yes"/>
      <point x="118" y="-8"/>
      <point x="46" y="94"/>
      <point x="46" y="318" type="curve" smooth="yes"/>
      <point x="46" y="588"/>
      <point x="248" y="692"/>
    </contour>
    <contour>
      <point x="276" y="384" type="curve" smooth="yes"/>
      <point x="192" y="384"/>
      <point x="142" y="333"/>
      <point x="125" y="308" type="curve"/>
      <point x="125" y="290"/>
      <point x="125" y="275"/>
      <point x="125" y="235" type="curve" smooth="yes"/>
      <point x="125" y="128"/>
      <point x="172" y="56"/>
      <point x="276" y="56" type="curve" smooth="yes"/>
      <point x="374" y="56"/>
      <point x="430" y="117"/>
      <point x="430" y="223" type="curve" smooth="yes"/>
      <point x="430" y="327"/>
      <point x="376" y="384"/>
    </contour>
  </outline>
</glyph>
<glyph name="nine" format="2">
  <advance width="550"/>
  <unicode hex="0039"/>
  <outline>
    <contour>
      <point x="281" y="716" type="curve" smooth="yes"/>
      <point x="435" y="716"/>
      <point x="512" y="616"/>
      <point x="512" y="415" type="curve" smooth="yes"/>
      <point x="512" y="125"/>
      <point x="429" y="-8"/>
      <point x="249" y="-8" type="curve" smooth="yes"/>
      <point x="176" y="-8"/>
      <point x="109" y="11"/>
      <point x="50" y="49" type="curve"/>
      <point x="74" y="108" type="line"/>
      <point x="125" y="73"/>
      <point x="185" y="56"/>
      <point x="253" y="56" type="curve" smooth="yes"/>
      <point x="380" y="56"/>
      <point x="434" y="150"/>
      <point x="434" y="370" type="curve"/>
      <point x="401" y="296"/>
      <point x="348" y="259"/>
      <point x="273" y="259" type="curve" smooth="yes"/>
      <point x="135" y="259"/>
      <point x="48" y="345"/>
      <point x="48" y="482" type="curve" smooth="yes"/>
      <point x="48" y="627"/>
      <point x="137" y="716"/>
    </contour>
    <contour>
      <point x="278" y="652" type="curve" smooth="yes"/>
      <point x="187" y="652"/>
      <point x="128" y="586"/>
      <point x="128" y="482" type="curve" smooth="yes"/>
      <point x="128" y="378"/>
      <point x="178" y="325"/>
      <point x="278" y="325" type="curve" smooth="yes"/>
      <point x="372" y="325"/>
      <point x="432" y="386"/>
      <point x="432" y="482" type="curve" smooth="yes"/>
      <point x="432" y="592"/>
      <point x="378" y="652"/>
    </contour>
  </outline>
</glyph>
<glyph name="G" format="2">
  <advance width="654"/>
  <unicode hex="0047"/>
  <outline>
    <contour>
      <point x="371" y="716" type="curve" smooth="yes"/>
      <point x="456" y="716"/>
      <point x="520" y="694"/>
      <point x="582" y="637" type="curve"/>
      <point x="545" y="586" type="line"/>
      <point x="504" y="621"/>
      <point x="453" y="653"/>
      <point x="375" y="653" type="curve" smooth="yes"/>
      <point x="239" y="653"/>
      <point x="126" y="553"/>
      <point x="126" y="352" type="curve" smooth="yes"/>
      <point x="126" y="146"/>
      <point x="223" y="53"/>
      <point x="361" y="53" type="curve" smooth="yes"/>
      <point x="401" y="53"/>
      <point x="466" y="61"/>
      <point x="506" y="73" type="curve"/>
      <point x="506" y="326" type="line"/>
      <point x="318" y="326" type="line"/>
      <point x="318" y="392" type="line"/>
      <point x="586" y="392" type="line"/>
      <point x="586" y="30" type="line"/>
      <point x="523" y="10"/>
      <point x="437" y="-8"/>
      <point x="357" y="-8" type="curve" smooth="yes"/>
      <point x="200" y="-8"/>
      <point x="48" y="91"/>
      <point x="48" y="352" type="curve" smooth="yes"/>
      <point x="48" y="571"/>
      <point x="179" y="716"/>
    </contour>
  </outline>
</glyph>
<glyph name="I" format="2">
  <advance width="264"/>
  <unicode hex="0049"/>
  <anchor x="130" y="880" name="AccentCenter"/>
  <outline>
    <contour>
      <point x="92" y="708" type="line"/>
      <point x="172" y="708" type="line"/>
      <point x="172" y="0" type="line"/>
      <point x="92" y="0" type="line"/>
    </contour>
  </outline>
</glyph>
<glyph name="O" format="2">
  <advance width="687"/>
  <unicode hex="004F"/>
  <anchor x="344" y="876" name="AccentCenter"/>
  <outline>
    <contour>
      <point x="344" y="716" type="curve" smooth="yes"/>
      <point x="538" y="716"/>
      <point x="639" y="553"/>
      <point x="639" y="359" type="curve" smooth="yes"/>
      <point x="639" y="166"/>
      <point x="539" y="-8"/>
      <point x="344" y="-8" type="curve" smooth="yes"/>
      <point x="144" y="-8"/>
      <point x="48" y="166"/>
      <point x="48" y="356" type="curve" smooth="yes"/>
      <point x="48" y="552"/>
      <point x="143" y="716"/>
    </contour>
    <contour>
      <point x="344" y="652" type="curve" smooth="yes"/>
      <point x="211" y="652"/>
      <point x="128" y="553"/>
      <point x="128" y="356" type="curve" smooth="yes"/>
      <point x="128" y="156"/>
      <point x="211" y="56"/>
      <point x="344" y="56" type="curve" smooth="yes"/>
      <point x="477" y="56"/>
      <point x="559" y="156"/>
      <point x="559" y="356" type="curve" smooth="yes"/>
      <point x="559" y="553"/>
      <point x="477" y="652"/>
    </contour>
  </outline>
</glyph>
<glyph name="Q" format="2">
  <advance width="687"/>
  <unicode hex="0051"/>
  <outline>
    <contour>
      <point x="344" y="652" type="curve" smooth="yes"/>
      <point x="210" y="652"/>
      <point x="128" y="552"/>
      <point x="128" y="353" type="curve" smooth="yes"/>
      <point x="128" y="154"/>
      <point x="210" y="54"/>
      <point x="344" y="54" type="curve" smooth="yes"/>
      <point x="476" y="54"/>
      <point x="559" y="151"/>
      <point x="559" y="353" type="curve" smooth="yes"/>
      <point x="559" y="555"/>
      <point x="476" y="652"/>
    </contour>
    <contour>
      <point x="344" y="716" type="curve" smooth="yes"/>
      <point x="518" y="716"/>
      <point x="639" y="585"/>
      <point x="639" y="358" type="curve" smooth="yes"/>
      <point x="639" y="137"/>
      <point x="537" y="12"/>
      <point x="380" y="-5" type="curve"/>
      <point x="386" y="-81"/>
      <point x="426" y="-120"/>
      <point x="496" y="-120" type="curve" smooth="yes"/>
      <point x="577" y="-120" type="line"/>
      <point x="582" y="-167" type="line"/>
      <point x="561" y="-178"/>
      <point x="530" y="-184"/>
      <point x="488" y="-184" type="curve" smooth="yes"/>
      <point x="393" y="-184"/>
      <point x="317" y="-107"/>
      <point x="311" y="-5" type="curve"/>
      <point x="151" y="11"/>
      <point x="48" y="139"/>
      <point x="48" y="355" type="curve" smooth="yes"/>
      <point x="48" y="584"/>
      <point x="166" y="716"/>
    </contour>
  </outline>
</glyph>
<glyph name="a" format="2">
  <advance width="526"/>
  <unicode hex="0061"/>
  <anchor x="267" y="687" name="AccentCenter"/>
  <anchor x="257" y="687" name="Ring"/>
  <outline>
    <contour>
      <point x="250" y="528" type="curve" smooth="yes"/>
      <point x="374" y="528"/>
      <point x="437" y="451"/>
      <point x="437" y="331" type="curve" smooth="yes"/>
      <point x="437" y="65" type="line"/>
      <point x="502" y="65" type="line"/>
      <point x="502" y="0" type="line"/>
      <point x="357" y="0" type="line"/>
      <point x="357" y="84" type="line"/>
      <point x="334" y="41"/>
      <point x="286" y="-8"/>
      <point x="206" y="-8" type="curve" smooth="yes"/>
      <point x="117" y="-8"/>
      <point x="48" y="42"/>
      <point x="48" y="145" type="curve" smooth="yes"/>
      <point x="48" y="245"/>
      <point x="111" y="305"/>
      <point x="244" y="305" type="curve" smooth="yes"/>
      <point x="357" y="305" type="line"/>
      <point x="357" y="345" type="line" smooth="yes"/>
      <point x="357" y="420"/>
      <point x="322" y="464"/>
      <point x="245" y="464" type="curve" smooth="yes"/>
      <point x="191" y="464"/>
      <point x="149" y="453"/>
      <point x="103" y="423" type="curve"/>
      <point x="80" y="478" type="line"/>
      <point x="123" y="508"/>
      <point x="181" y="528"/>
    </contour>
    <contour>
      <point x="357" y="243" type="line"/>
      <point x="245" y="243" type="line" smooth="yes"/>
      <point x="158" y="243"/>
      <point x="128" y="210"/>
      <point x="128" y="144" type="curve" smooth="yes"/>
      <point x="128" y="83"/>
      <point x="169" y="56"/>
      <point x="225" y="56" type="curve" smooth="yes"/>
      <point x="301" y="56"/>
      <point x="337" y="105"/>
      <point x="357" y="141" type="curve"/>
    </contour>
  </outline>
</glyph>
<glyph name="c" format="2">
  <advance width="498"/>
  <unicode hex="0063"/>
  <outline>
    <contour>
      <point x="290" y="528" type="curve" smooth="yes"/>
      <point x="367" y="528"/>
      <point x="419" y="505"/>
      <point x="470" y="454" type="curve"/>
      <point x="435" y="403" type="line"/>
      <point x="395" y="444"/>
      <point x="356" y="464"/>
      <point x="294" y="464" type="curve" smooth="yes"/>
      <point x="194" y="464"/>
      <point x="131" y="385"/>
      <point x="131" y="260" type="curve" smooth="yes"/>
      <point x="131" y="136"/>
      <point x="194" y="56"/>
      <point x="292" y="56" type="curve" smooth="yes"/>
      <point x="356" y="56"/>
      <point x="394" y="72"/>
      <point x="438" y="119" type="curve"/>
      <point x="474" y="68" type="line"/>
      <point x="421" y="15"/>
      <point x="365" y="-8"/>
      <point x="288" y="-8" type="curve" smooth="yes"/>
      <point x="147" y="-8"/>
      <point x="48" y="107"/>
      <point x="48" y="260" type="curve" smooth="yes"/>
      <point x="48" y="418"/>
      <point x="146" y="528"/>
    </contour>
  </outline>
</glyph>
<glyph name="g" format="2">
  <advance width="552"/>
  <unicode hex="0067"/>
  <outline>
    <contour>
      <point x="241" y="528" type="curve" smooth="yes"/>
      <point x="298" y="528"/>
      <point x="334" y="512"/>
      <point x="357" y="497" type="curve"/>
      <point x="481" y="520" type="line"/>
      <point x="514" y="520" type="line"/>
      <point x="514" y="451" type="line"/>
      <point x="403" y="451" type="line"/>
      <point x="422" y="425"/>
      <point x="431" y="396"/>
      <point x="431" y="359" type="curve" smooth="yes"/>
      <point x="431" y="254"/>
      <point x="359" y="190"/>
      <point x="241" y="190" type="curve" smooth="yes"/>
      <point x="200" y="190"/>
      <point x="182" y="197"/>
      <point x="182" y="197" type="curve"/>
      <point x="131" y="119" type="line"/>
      <point x="367" y="92" type="line" smooth="yes"/>
      <point x="456" y="82"/>
      <point x="517" y="45"/>
      <point x="517" y="-35" type="curve" smooth="yes"/>
      <point x="517" y="-126"/>
      <point x="422" y="-192"/>
      <point x="284" y="-192" type="curve" smooth="yes"/>
      <point x="177" y="-192"/>
      <point x="118" y="-169"/>
      <point x="37" y="-125" type="curve"/>
      <point x="37" y="-85" type="line"/>
      <point x="137" y="51" type="line"/>
      <point x="56" y="60" type="line"/>
      <point x="56" y="112" type="line"/>
      <point x="121" y="214" type="line"/>
      <point x="61" y="251"/>
      <point x="47" y="291"/>
      <point x="47" y="359" type="curve" smooth="yes"/>
      <point x="47" y="461"/>
      <point x="133" y="528"/>
    </contour>
    <contour>
      <point x="206" y="44" type="line"/>
      <point x="112" y="-85" type="line"/>
      <point x="158" y="-106"/>
      <point x="215" y="-128"/>
      <point x="286" y="-128" type="curve" smooth="yes"/>
      <point x="382" y="-128"/>
      <point x="437" y="-92"/>
      <point x="437" y="-39" type="curve" smooth="yes"/>
      <point x="437" y="0"/>
      <point x="410" y="21"/>
      <point x="358" y="27" type="curve" smooth="yes"/>
    </contour>
    <contour>
      <point x="241" y="464" type="curve" smooth="yes"/>
      <point x="173" y="464"/>
      <point x="127" y="428"/>
      <point x="127" y="359" type="curve" smooth="yes"/>
      <point x="127" y="284"/>
      <point x="168" y="248"/>
      <point x="241" y="248" type="curve" smooth="yes"/>
      <point x="313" y="248"/>
      <point x="351" y="286"/>
      <point x="351" y="359" type="curve" smooth="yes"/>
      <point x="351" y="426"/>
      <point x="309" y="464"/>
    </contour>
  </outline>
</glyph>
<glyph name="k" format="2">
  <advance width="523"/>
  <unicode hex="006B"/>
  <outline>
    <contour>
      <point x="80" y="708" type="line"/>
      <point x="160" y="708" type="line"/>
      <point x="160" y="309" type="line"/>
      <point x="195" y="309" type="line"/>
      <point x="388" y="520" type="line"/>
      <point x="496" y="520" type="line"/>
      <point x="262" y="275" type="line"/>
      <point x="499" y="0" type="line"/>
      <point x="392" y="0" type="line"/>
      <point x="190" y="245" type="line"/>
      <point x="160" y="245" type="line"/>
      <point x="160" y="0" type="line"/>
      <point x="80" y="0" type="line"/>
    </contour>
  </outline>
</glyph>
<glyph name="m" format="2">
  <advance width="860"/>
  <unicode hex="006D"/>
  <outline>
    <contour>
      <point x="92" y="520" type="line"/>
      <point x="155" y="520" type="line"/>
      <point x="172" y="444" type="line"/>
      <point x="217" y="500"/>
      <point x="269" y="528"/>
      <point x="328" y="528" type="curve" smooth="yes"/>
      <point x="397" y="528"/>
      <point x="443" y="499"/>
      <point x="463" y="442" type="curve"/>
      <point x="497" y="499"/>
      <point x="546" y="528"/>
      <point x="608" y="528" type="curve" smooth="yes"/>
      <point x="710" y="528"/>
      <point x="768" y="465"/>
      <point x="768" y="353" type="curve" smooth="yes"/>
      <point x="768" y="0" type="line"/>
      <point x="688" y="0" type="line"/>
      <point x="688" y="352" type="line" smooth="yes"/>
      <point x="688" y="430"/>
      <point x="658" y="464"/>
      <point x="589" y="464" type="curve" smooth="yes"/>
      <point x="543" y="464"/>
      <point x="501" y="440"/>
      <point x="465" y="392" type="curve"/>
      <point x="465" y="0" type="line"/>
      <point x="385" y="0" type="line"/>
      <point x="385" y="368" type="line" smooth="yes"/>
      <point x="385" y="434"/>
      <point x="356" y="464"/>
      <point x="294" y="464" type="curve" smooth="yes"/>
      <point x="243" y="464"/>
      <point x="200" y="439"/>
      <point x="172" y="393" type="curve"/>
      <point x="172" y="0" type="line"/>
      <point x="92" y="0" type="line"/>
    </contour>
  </outline>
</glyph>
<glyph name="n" format="2">
  <advance width="578"/>
  <unicode hex="006E"/>
  <anchor x="300" y="687" name="AccentCenter"/>
  <outline>
    <contour>
      <point x="92" y="520" type="line"/>
      <point x="153" y="520" type="line"/>
      <point x="172" y="441" type="line"/>
      <point x="217" y="501"/>
      <point x="273" y="528"/>
      <point x="332" y="528" type="curve" smooth="yes"/>
      <point x="440" y="528"/>
      <point x="502" y="456"/>
      <point x="502" y="336" type="curve" smooth="yes"/>
      <point x="502" y="0" type="line"/>
      <point x="422" y="0" type="line"/>
      <point x="422" y="334" type="line" smooth="yes"/>
      <point x="422" y="422"/>
      <point x="389" y="462"/>
      <point x="314" y="462" type="curve" smooth="yes"/>
      <point x="257" y="462"/>
      <point x="210" y="436"/>
      <point x="172" y="383" type="curve"/>
      <point x="172" y="0" type="line"/>
      <point x="92" y="0" type="line"/>
    </contour>
  </outline>
</glyph>
<glyph name="s" format="2">
  <advance width="514"/>
  <unicode hex="0073"/>
  <outline>
    <contour>
      <point x="264" y="528" type="curve" smooth="yes"/>
      <point x="329" y="528"/>
      <point x="385" y="513"/>
      <point x="446" y="470" type="curve"/>
      <point x="409" y="415" type="line"/>
      <point x="362" y="449"/>
      <point x="315" y="464"/>
      <point x="266" y="464" type="curve" smooth="yes"/>
      <point x="203" y="464"/>
      <point x="152" y="440"/>
      <point x="152" y="386" type="curve" smooth="yes"/>
      <point x="152" y="346"/>
      <point x="176" y="321"/>
      <point x="223" y="311" type="curve" smooth="yes"/>
      <point x="321" y="290" type="line" smooth="yes"/>
      <point x="409" y="271"/>
      <point x="466" y="226"/>
      <point x="466" y="141" type="curve" smooth="yes"/>
      <point x="466" y="36"/>
      <point x="354" y="-8"/>
      <point x="251" y="-8" type="curve" smooth="yes"/>
      <point x="169" y="-8"/>
      <point x="101" y="15"/>
      <point x="48" y="62" type="curve"/>
      <point x="91" y="116" type="line"/>
      <point x="136" y="77"/>
      <point x="189" y="57"/>
      <point x="249" y="57" type="curve" smooth="yes"/>
      <point x="338" y="57"/>
      <point x="384" y="88"/>
      <point x="384" y="139" type="curve" smooth="yes"/>
      <point x="384" y="186"/>
      <point x="354" y="211"/>
      <point x="294" y="223" type="curve" smooth="yes"/>
      <point x="199" y="243" type="line" smooth="yes"/>
      <point x="154" y="253"/>
      <point x="69" y="282"/>
      <point x="69" y="387" type="curve" smooth="yes"/>
      <point x="69" y="460"/>
      <point x="125" y="528"/>
    </contour>
  </outline>
</glyph>
<glyph name="u" format="2">
  <advance width="578"/>
  <unicode hex="0075"/>
  <anchor x="295" y="687" name="AccentCenter"/>
  <outline>
    <contour>
      <point x="76" y="520" type="line"/>
      <point x="156" y="520" type="line"/>
      <point x="156" y="197" type="line" smooth="yes"/>
      <point x="156" y="103"/>
      <point x="191" y="56"/>
      <point x="262" y="56" type="curve" smooth="yes"/>
      <point x="299" y="56"/>
      <point x="349" y="66"/>
      <point x="408" y="146" type="curve"/>
      <point x="408" y="520" type="line"/>
      <point x="486" y="520" type="line"/>
      <point x="486" y="0" type="line"/>
      <point x="424" y="0" type="line"/>
      <point x="410" y="81" type="line"/>
      <point x="394" y="62"/>
      <point x="334" y="-8"/>
      <point x="237" y="-8" type="curve" smooth="yes"/>
      <point x="194" y="-8"/>
      <point x="76" y="-8"/>
      <point x="76" y="195" type="curve" smooth="yes"/>
    </contour>
  </outline>
</glyph>
<glyph name="x" format="2">
  <advance width="537"/>
  <unicode hex="0078"/>
  <outline>
    <contour>
      <point x="30" y="520" type="line"/>
      <point x="126" y="520" type="line"/>
      <point x="269" y="311" type="line"/>
      <point x="411" y="520" type="line"/>
      <point x="507" y="520" type="line"/>
      <point x="317" y="260" type="line"/>
      <point x="507" y="0" type="line"/>
      <point x="411" y="0" type="line"/>
      <point x="269" y="211" type="line"/>
      <point x="126" y="0" type="line"/>
      <point x="30" y="0" type="line"/>
      <point x="221" y="260" type="line"/>
    </contour>
  </outline>
</glyph>
<glyph name="sterling" format="2">
  <advance width="607"/>
  <unicode hex="00A3"/>
  <outline>
    <contour>
      <point x="358" y="716" type="curve" smooth="yes"/>
      <point x="450" y="716"/>
      <point x="504" y="688"/>
      <point x="551" y="662" type="curve"/>
      <point x="522" y="603" type="line"/>
      <point x="480" y="626"/>
      <point x="429" y="651"/>
      <point x="359" y="651" type="curve" smooth="yes"/>
      <point x="283" y="651"/>
      <point x="210" y="600"/>
      <point x="210" y="507" type="curve" smooth="yes"/>
      <point x="210" y="470"/>
      <point x="213" y="438"/>
      <point x="244" y="382" type="curve"/>
      <point x="434" y="382" type="line"/>
      <point x="434" y="312" type="line"/>
      <point x="270" y="312" type="line"/>
      <point x="275" y="292"/>
      <point x="278" y="274"/>
      <point x="278" y="258" type="curve" smooth="yes"/>
      <point x="278" y="157"/>
      <point x="235" y="107"/>
      <point x="173" y="69" type="curve"/>
      <point x="546" y="69" type="line"/>
      <point x="546" y="0" type="line"/>
      <point x="68" y="0" type="line"/>
      <point x="68" y="85" type="line"/>
      <point x="156" y="104"/>
      <point x="200" y="165"/>
      <point x="200" y="268" type="curve" smooth="yes"/>
      <point x="200" y="281"/>
      <point x="198" y="296"/>
      <point x="194" y="312" type="curve"/>
      <point x="40" y="312" type="line"/>
      <point x="40" y="382" type="line"/>
      <point x="169" y="382" type="line"/>
      <point x="149" y="422"/>
      <point x="134" y="459"/>
      <point x="134" y="507" type="curve" smooth="yes"/>
      <point x="134" y="596"/>
      <point x="186" y="716"/>
    </contour>
  </outline>
</glyph>
<glyph name="mu" format="2">
  <advance width="638"/>
  <unicode hex="00B5"/>
  <outline>
    <contour>
      <point x="80" y="519" type="line"/>
      <point x="158" y="519" type="line"/>
      <point x="158" y="128" type="line"/>
      <point x="166" y="112"/>
      <point x="202" y="56"/>
      <point x="294" y="56" type="curve" smooth="yes"/>
      <point x="361" y="56"/>
      <point x="424" y="99"/>
      <point x="424" y="220" type="curve" smooth="yes"/>
      <point x="424" y="519" type="line"/>
      <point x="502" y="519" type="line"/>
      <point x="502" y="102" type="line"/>
      <point x="502" y="68"/>
      <point x="515" y="57"/>
      <point x="541" y="57" type="curve"/>
      <point x="558" y="57" type="line"/>
      <point x="558" y="0" type="line"/>
      <point x="552" y="-2"/>
      <point x="526" y="-8"/>
      <point x="508" y="-8" type="curve"/>
      <point x="456" y="-8"/>
      <point x="432" y="23"/>
      <point x="427" y="70" type="curve"/>
      <point x="402" y="24"/>
      <point x="356" y="-8"/>
      <point x="292" y="-8" type="curve" smooth="yes"/>
      <point x="233" y="-8"/>
      <point x="187" y="5"/>
      <point x="147" y="56" type="curve"/>
      <point x="155" y="38"/>
      <point x="158" y="23"/>
      <point x="158" y="4" type="curve"/>
      <point x="158" y="-191" type="line"/>
      <point x="80" y="-191" type="line"/>
    </contour>
  </outline>
</glyph>
<glyph name="acutecomb" format="2">
  <advance width="0"/>
  <unicode hex="0301"/>
  <anchor x="0" y="834" name="_AccentCenter"/>
  <outline>
    <contour>
      <point x="81" y="931" type="line"/>
      <point x="128" y="867" type="line"/>
      <point x="-91" y="744" type="line"/>
      <point x="-126" y="796" type="line"/>
    </contour>
  </outline>
</glyph>
<glyph name="racingMotorcycle" format="2">
  <advance width="1200"/>
  <unicode hex="1F3CD"/>
  <outline>
    <contour>
      <point x="1170" y="162" type="curve" smooth="yes"/>
      <point x="1170" y="260"/>
      <point x="1090" y="340"/>
      <point x="992" y="340" type="curve" smooth="yes"/>
      <point x="978" y="340"/>
      <point x="965" y="338"/>
      <point x="952" y="335" type="curve"/>
      <point x="802" y="599" type="line"/>
      <point x="748" y="599" type="line"/>
      <point x="748" y="575" type="line"/>
      <point x="785" y="575" type="line"/>
      <point x="841" y="474" type="line"/>
      <point x="785" y="520" type="line"/>
      <point x="716" y="520" type="line" smooth="yes"/>
      <point x="606" y="520"/>
      <point x="551" y="474"/>
      <point x="523" y="410" type="curve"/>
      <point x="523" y="351" type="line"/>
      <point x="310" y="351" type="line"/>
      <point x="321" y="333" type="line"/>
      <point x="288" y="300" type="line"/>
      <point x="262" y="316"/>
      <point x="232" y="325"/>
      <point x="199" y="325" type="curve" smooth="yes"/>
      <point x="105" y="325"/>
      <point x="29" y="249"/>
      <point x="29" y="155" type="curve" smooth="yes"/>
      <point x="29" y="60"/>
      <point x="105" y="-16"/>
      <point x="199" y="-16" type="curve" smooth="yes"/>
      <point x="247" y="-16"/>
      <point x="289" y="3"/>
      <point x="320" y="34" type="curve"/>
      <point x="178" y="34" type="line"/>
      <point x="235" y="144" type="line"/>
      <point x="370" y="144" type="line"/>
      <point x="370" y="148"/>
      <point x="370" y="151"/>
      <point x="370" y="155" type="curve" smooth="yes"/>
      <point x="370" y="201"/>
      <point x="352" y="243"/>
      <point x="322" y="273" type="curve"/>
      <point x="344" y="295" type="line"/>
      <point x="437" y="144" type="line"/>
      <point x="614" y="144" type="line"/>
      <point x="693" y="296" type="line"/>
      <point x="693" y="361" type="line"/>
      <point x="845" y="361" type="line"/>
      <point x="875" y="402" type="line"/>
      <point x="920" y="325" type="line"/>
      <point x="857" y="297"/>
      <point x="814" y="234"/>
      <point x="814" y="162" type="curve" smooth="yes"/>
      <point x="814" y="64"/>
      <point x="894" y="-16"/>
      <point x="992" y="-16" type="curve" smooth="yes"/>
      <point x="1090" y="-16"/>
      <point x="1170" y="64"/>
    </contour>
    <contour>
      <point x="717" y="308" type="line"/>
      <point x="762" y="308" type="line"/>
      <point x="682" y="121" type="line"/>
      <point x="254" y="120" type="line"/>
      <point x="222" y="58" type="line"/>
      <point x="694" y="58" type="line"/>
      <point x="797" y="306" type="line"/>
      <point x="797" y="337" type="line"/>
      <point x="717" y="337" type="line"/>
    </contour>
    <contour>
      <point x="475" y="425" type="line"/>
      <point x="289" y="425" type="line"/>
      <point x="123" y="455" type="line"/>
      <point x="109" y="406" type="line"/>
      <point x="286" y="375" type="line"/>
      <point x="499" y="375" type="line"/>
      <point x="499" y="408" type="line"/>
    </contour>
    <contour>
      <point x="879" y="517" type="line"/>
      <point x="879" y="511" type="line"/>
      <point x="929" y="426" type="line"/>
      <point x="955" y="426" type="line"/>
      <point x="955" y="538" type="line"/>
      <point x="900" y="538" type="line"/>
    </contour>
    <contour>
      <point x="724" y="607" type="line"/>
      <point x="671" y="607" type="line"/>
      <point x="671" y="567" type="line"/>
      <point x="724" y="567" type="line"/>
    </contour>
  </outline>
</glyph>
